<?xml version="1.0" encoding="utf-8"?>
<!-- Generator: Adobe Illustrator 19.0.1, SVG Export Plug-In . SVG Version: 6.00 Build 0)  -->
<svg version="1.1" id="Layer_1" xmlns="http://www.w3.org/2000/svg" xmlns:xlink="http://www.w3.org/1999/xlink" x="0px" y="0px"
	 viewBox="-329 181 300 200" style="enable-background:new -329 181 300 200;" xml:space="preserve">
<style type="text/css">
	.st0{fill:#56545F;}
	.st1{fill:#3E3450;}
	.st2{fill:#FACCB4;}
	.st3{fill:#FFBA9C;}
	.st4{fill:#4F443E;}
	.st5{opacity:0.6;enable-background:new    ;}
	.st6{fill:#E7AA90;}
	.st7{fill:#4F443E;stroke:#3E3450;stroke-width:4;stroke-linecap:round;stroke-linejoin:round;stroke-miterlimit:10;}
</style>
<g>
	<path class="st0" d="M-300.6,244.9c7.6,0,15.1-2.2,20-7.1c-0.1-1.3-0.1-2.1-0.3-2.7c-1.6-6.2-6.1-7.3-14.2-9.3
		c-8.7-2.1-2.1-2.3-10.5,0c-6.7,1.9-13.3,2.7-14.8,8.8c-0.2,0.7-0.3,1.6-0.4,3.1C-317.2,241.2-308.2,244.9-300.6,244.9"/>
	<path class="st1" d="M-300.6,245.5c-7.8,0-16.9-3.8-20.6-7.3l-0.2-0.2l0-0.3c0.1-1.6,0.2-2.5,0.4-3.2c1.4-5.7,6.9-7.1,12.7-8.6
		c0.8-0.2,1.7-0.4,2.5-0.7c2.5-0.7,3.6-1.1,4.2-1.4c0.9-0.4,1.1-0.4,1.9,0c0.6,0.3,1.8,0.7,4.7,1.4l0.1,0c8,2,12.9,3.1,14.6,9.7
		c0.2,0.7,0.3,1.5,0.3,2.8l0,0.3l-0.2,0.2C-284.9,242.9-292.3,245.5-300.6,245.5z M-320.2,237.5c3.6,3.3,12.2,6.8,19.6,6.8
		c7.9,0,14.9-2.5,19.4-6.7c-0.1-1.1-0.1-1.7-0.3-2.3c-1.5-5.9-5.8-6.9-13.7-8.8l-0.1,0c-3-0.7-4.2-1.2-4.8-1.5c-0.4-0.2-0.4-0.2-1,0
		c-0.6,0.3-1.8,0.7-4.4,1.4c-0.9,0.2-1.7,0.5-2.5,0.7c-5.7,1.5-10.6,2.7-11.8,7.7C-320,235.4-320,236.2-320.2,237.5z"/>
</g>
<g>
	<path class="st0" d="M-300.6,246.4c7.3,0,14.1-2.7,19.3-7.1c0.1-0.1,0.1-0.2,0.1-0.3c0-1.8-0.1-1.9-0.3-2.5c-1-5.6-6-7.2-13.9-9.3
		c-8.7-2.2-2.1-2.3-10.2,0c-6.5,1.9-12.1,2.2-14.4,8.9c-0.2,0.6-0.2,1.7-0.2,2.8c0,0.1,0,0.2,0.1,0.3
		C-314.7,243.6-308,246.4-300.6,246.4"/>
</g>
<g id="cuello_2_">
	<path class="st2" d="M-304.8,223.6v3.2c0,0,0.5,3.6,4.2,3.6c3.3,0,4.1-3.3,4.1-3.3v-3.3"/>
	<path class="st1" d="M-300.6,230.7c-4,0-4.7-3.9-4.7-3.9l0-0.1v-3.2h0.9v3.1c0.1,0.3,0.7,3.1,3.8,3.1c2.7,0,3.6-2.6,3.7-3v-3.3h0.9
		l0,3.5C-296,227.1-297,230.7-300.6,230.7z"/>
</g>
<g>
	<path class="st3" d="M-304.3,223.9h7.3c0,0-0.6,2.3-3.3,2.4C-304,226.2-304.3,223.9-304.3,223.9z"/>
</g>
<g id="cara_1_">
	<path class="st2" d="M-313.8,196.5v17.8c0,0,1.7,9.3,13.3,9.3c11.9,0,13.3-9.3,13.3-9.3v-19.7h-26.6V196.5z"/>
	<path class="st1" d="M-300.5,224.2c-12,0-13.8-9.7-13.9-9.8l0-0.1V194h27.7l0,20.4C-286.7,214.5-288.3,224.2-300.5,224.2z
		 M-313.2,214.2c0.2,0.8,2,8.8,12.7,8.8c10.9,0,12.6-8,12.7-8.8v-19.1h-25.4V214.2z"/>
</g>
<g>
	<path class="st3" d="M-312.7,197.4c0,0-0.5,0.1,0.4,0.1c1.2,0,0.7-0.6,0.7-0.6s1.6,0.3,1.4-0.4c-0.1-0.5,0.2-0.4,0.6-0.2
		c1.2,0.8,7.5,1.2,8.3,1.3c1.2,0.1,5.9-0.8,5.9-0.8s3.8,1.2,4.8,1.3c1.2,0.1,2.6,0.1,2.6,0.1s1.4,1.2,1.4,1.8
		c0.1,1.2,0.3,2.7,0.3,2.7l1.5,3.4l0-3.6c0,0,0.7-7.2-0.1-9c-1.7-3.6-4.1-4-4.1-4s1.4-0.7-5.1-2.3c-3.3-0.8-5.6-2.2-5.6-2.2
		s-1.6-2.4-5.6-1.9c-4.1,0.5-4.9,3.4-4.9,3.4s-1.7-0.8-3.1,0.9c-0.4,0.5-1.3,2.4-1.3,2.4s-0.5,0.6-1.3,2.6c-0.8,2.1-0.5,5.1-0.5,5.1
		s-0.6,3-0.7,4.1c-0.1,0.8,1.5,2.5,1.5,2.5l0.6,0.3"/>
</g>
<g>
	<path class="st4" d="M-290.8,182.6c3.5,1.2,3.5,4.4,3.5,4.4s3.4,0.8,4.1,3.2c0.5,1.9-0.7,5.3-0.7,5.3s0.5,4.5,0.3,6.3
		c-0.2,1.3-1,5.4-1,5.4l-2-2.5c0,0-0.1-0.2-0.2-0.6c-0.4-1.1-1.1-3.6-1.2-4.6c-0.1-0.7,0-3,0-3s-1.1,0.1-2.3-0.1
		c-1-0.1-4.8-1.5-4.8-1.5s-4.7,1-5.9,0.9c-0.8-0.1-7.1-0.5-8.3-1.4c-0.3-0.2-0.7-0.3-0.6,0.2c0.1,0.9-1.4,0.5-1.4,0.5
		s0.4,0.7-0.7,0.7c-0.9,0-1.6,0-1.6,0s0.1,2.6,0,3.3c-0.1,1.5-1.2,5-1.2,5l-2.5,1c0,0-0.3-1.7-0.4-2.3c-0.1-0.6-0.1-1.7-0.1-2.4
		c0-1.3,0.8-4.9,0.8-4.9s-1.2-3-0.4-5.3c0.7-2.2,3.3-2.9,3.3-2.9s0.1-1.9,1.3-2.7c1.3-0.8,3.8-0.5,3.8-0.5s0.4-2.6,4.6-2.7
		c4.7-0.1,6.1,2.5,6.1,2.5s2.4-2,5.9-1.7C-291.3,182.4-290.8,182.6-290.8,182.6z"/>
	<path class="st1" d="M-284.7,207.8c-0.2,0-0.4-0.1-0.5-0.2l-2-2.5c0,0-0.1-0.1-0.1-0.2c0,0-0.1-0.3-0.2-0.6
		c-0.4-1.3-1.1-3.7-1.2-4.8c0-0.5,0-1.6,0-2.4c-0.5,0-1.1,0-1.8-0.1c-0.9-0.1-4-1.2-4.8-1.5c-0.9,0.2-4.8,1-5.9,0.8
		c-0.1,0-0.5-0.1-0.9-0.1c-3.5-0.3-6.1-0.7-7.3-1.2c-0.1,0.2-0.1,0.3-0.3,0.4c-0.3,0.3-0.7,0.3-1.1,0.3c0,0,0,0,0,0
		c-0.2,0.4-0.6,0.6-1.3,0.6c-0.4,0-0.7,0-1,0c0,0.8,0,2.2,0,2.8c-0.2,1.5-1.2,4.9-1.2,5.1c-0.1,0.2-0.2,0.3-0.3,0.4l-2.5,1
		c-0.2,0.1-0.4,0.1-0.5,0c-0.2-0.1-0.3-0.2-0.3-0.4c0,0-0.3-1.7-0.4-2.2c-0.1-0.7-0.2-2.1-0.2-2.5c0-1.2,0.6-4.1,0.8-4.9
		c-0.3-0.7-1.1-3.3-0.4-5.5c0.6-1.9,2.5-2.9,3.3-3.2c0.1-0.7,0.5-2,1.6-2.7c1.1-0.7,2.8-0.7,3.7-0.6c0.4-0.9,1.5-2.6,5-2.6
		c3.7-0.1,5.5,1.4,6.3,2.3c0.9-0.6,3.1-1.7,5.8-1.5c1.2,0.1,1.7,0.3,1.8,0.3c2.8,0.9,3.7,3.2,3.9,4.5c1,0.3,3.5,1.3,4.1,3.5
		c0.5,1.9-0.5,4.9-0.7,5.5c0.1,0.8,0.5,4.6,0.3,6.3c-0.2,1.3-1,5.2-1.1,5.4c0,0.2-0.2,0.4-0.4,0.5
		C-284.6,207.8-284.6,207.8-284.7,207.8z M-286.1,204.4l1.1,1.4c0.3-1.3,0.6-3.2,0.8-4.1c0.3-1.7-0.3-6.1-0.3-6.1c0-0.1,0-0.2,0-0.3
		c0.3-0.9,1.1-3.5,0.7-5c-0.6-2-3.6-2.7-3.6-2.7c-0.3-0.1-0.5-0.3-0.5-0.6c0-0.1,0-2.9-3.1-3.9c0,0,0,0,0,0c0,0-0.5-0.2-1.5-0.2
		c-3.2-0.2-5.5,1.6-5.5,1.6c-0.1,0.1-0.3,0.2-0.5,0.1c-0.2,0-0.3-0.1-0.4-0.3c-0.1-0.1-1.4-2.2-5.6-2.2c-3.5,0.1-4,2.1-4,2.2
		c-0.1,0.3-0.4,0.5-0.7,0.5c-0.6-0.1-2.5-0.2-3.4,0.4c-1,0.6-1.1,2.2-1.1,2.2c0,0.3-0.2,0.5-0.4,0.5c0,0-2.3,0.7-2.9,2.5
		c-0.7,2.1,0.4,4.9,0.4,4.9c0,0.1,0.1,0.2,0,0.4c0,0-0.8,3.6-0.8,4.8c0,0.7,0,1.7,0.1,2.2c0.1,0.3,0.2,1,0.3,1.6l1.6-0.6
		c0.2-0.8,1-3.4,1.1-4.6c0.1-0.6,0-2.6,0-3.3c0-0.3,0.2-0.6,0.6-0.6c0,0,0.7,0,1.6,0c0,0,0.1,0,0.1,0c0-0.1,0-0.3,0.1-0.4
		c0.1-0.2,0.4-0.3,0.7-0.2c0.2,0.1,0.5,0.1,0.7,0c0-0.5,0.2-0.8,0.4-0.9c0.3-0.2,0.7-0.1,1.2,0.2c0.9,0.7,5.5,1.1,7,1.2
		c0.5,0,0.8,0.1,1,0.1c0.8,0.1,3.9-0.5,5.7-0.9c0.1,0,0.2,0,0.3,0c1.5,0.5,4,1.4,4.7,1.5c1.1,0.2,2.2,0.1,2.2,0.1
		c0.2,0,0.3,0,0.5,0.2c0.1,0.1,0.2,0.3,0.2,0.4c0,0-0.1,2.2,0,2.9c0,0.7,0.5,2.4,1.1,4.5c0,0,0,0,0,0
		C-286.2,204.2-286.2,204.3-286.1,204.4z"/>
</g>
<g>
	<g>
		<path class="st2" d="M-286.9,204.8c0,0,4.4-0.1,4.4,3.9c0,3.8-4.4,4.6-4.4,4.6V204.8z"/>
	</g>
	<g>
		<path class="st1" d="M-286.9,214.3l-0.8-10.2h0.9c0.4,0,1.6,0,2.7,0.6c1.1,0.5,2.4,1.7,2.4,4c0,3.5-3.3,5-5.1,5.3L-286.9,214.3z
			 M-286.2,205.6v6.7c1.1-0.4,3-1.4,3-3.6C-283.2,206.4-285.1,205.7-286.2,205.6z"/>
	</g>
</g>
<g>
	<path class="st2" d="M-314.3,204.7c0,0-4.6-0.6-4.6,4c0,3.8,4.6,4.7,4.6,4.7V204.7z"/>
	<path class="st1" d="M-313.7,214.1l-0.7-0.2c-1.7-0.4-5-1.9-5-5.3c0-1.5,0.5-2.7,1.4-3.5c1.5-1.4,3.8-1.1,3.9-1.1l0.5,0.1V214.1z
		 M-314.9,205.3c-0.6,0-1.7,0.1-2.4,0.8c-0.6,0.6-1,1.4-1,2.6c0,2.4,2.2,3.5,3.4,3.9V205.3z"/>
</g>
<g>
	<path class="st3" d="M-315.1,212.3v-6.5c0,0-1.6,0.7-1.5,2.6C-316.5,211.2-315.1,212.3-315.1,212.3z"/>
</g>
<g>
	<path class="st3" d="M-286.2,212.3v-6.5c0,0,1.6,0.7,1.5,2.6C-284.7,211.2-286.2,212.3-286.2,212.3z"/>
</g>
<g>
	<circle class="st1" cx="-306.9" cy="205.5" r="1.1"/>
	<path class="st1" d="M-306.9,206.7c-0.7,0-1.2-0.5-1.2-1.2s0.5-1.2,1.2-1.2c0.7,0,1.2,0.5,1.2,1.2S-306.2,206.7-306.9,206.7z
		 M-306.9,204.5c-0.5,0-0.9,0.4-0.9,0.9c0,0.5,0.4,0.9,0.9,0.9c0.5,0,0.9-0.4,0.9-0.9C-305.9,205-306.4,204.5-306.9,204.5z"/>
</g>
<g>
	<path class="st1" d="M-293.1,205.5c0,0.6-0.5,1.1-1.1,1.1s-1.1-0.5-1.1-1.1c0-0.6,0.5-1.1,1.1-1.1S-293.1,204.9-293.1,205.5z"/>
	<path class="st1" d="M-294.2,206.7c-0.7,0-1.2-0.5-1.2-1.2s0.5-1.2,1.2-1.2c0.7,0,1.2,0.5,1.2,1.2S-293.5,206.7-294.2,206.7z
		 M-294.2,204.5c-0.5,0-0.9,0.4-0.9,0.9c0,0.5,0.4,0.9,0.9,0.9c0.5,0,0.9-0.4,0.9-0.9C-293.3,205-293.7,204.5-294.2,204.5z"/>
</g>
<g>
	<path class="st1" d="M-300.2,218c-0.4,0-0.8,0-1.3-0.1c-0.2,0-0.4-0.3-0.4-0.5c0-0.2,0.3-0.4,0.5-0.4c1.9,0.2,3.5-0.1,4.4-0.9
		c0.4-0.3,0.5-0.7,0.5-1c0-0.2,0.2-0.4,0.4-0.4c0.2,0,0.4,0.2,0.4,0.4c0,0.6-0.3,1.2-0.9,1.7C-297.3,217.6-298.6,218-300.2,218z"/>
</g>
<g>
	<path class="st1" d="M-304,222.6c-0.1,0-0.1-0.1-0.1-0.1V221c0-0.1,0.1-0.1,0.1-0.1s0.1,0.1,0.1,0.1v1.5
		C-303.8,222.6-303.9,222.6-304,222.6z"/>
</g>
<g>
	<path class="st1" d="M-301.9,222.8c-0.1,0-0.1-0.1-0.1-0.1v-1.8c0-0.1,0.1-0.1,0.1-0.1c0.1,0,0.1,0.1,0.1,0.1v1.8
		C-301.7,222.7-301.8,222.8-301.9,222.8z"/>
</g>
<g>
	<polyline class="st4" points="-287.7,199.5 -286.4,208.1 -285.6,203.9 	"/>
	<path class="st1" d="M-286.4,208.4C-286.4,208.4-286.4,208.4-286.4,208.4c-0.2,0-0.3-0.1-0.3-0.3l-1.3-8.6c0-0.2,0.1-0.3,0.3-0.3
		c0.2,0,0.3,0.1,0.3,0.3l1.1,6.9l0.5-2.5c0-0.2,0.2-0.3,0.3-0.2c0.2,0,0.3,0.2,0.2,0.3l-0.8,4.2
		C-286.1,208.3-286.3,208.4-286.4,208.4z"/>
</g>
<g>
	<path class="st1" d="M-300.4,222.9c-0.1,0-0.1-0.1-0.1-0.1v-1.9c0-0.1,0.1-0.1,0.1-0.1c0.1,0,0.1,0.1,0.1,0.1v1.9
		C-300.2,222.8-300.3,222.9-300.4,222.9z"/>
</g>
<g>
	<path class="st1" d="M-298.7,223c-0.1,0-0.1-0.1-0.1-0.1V221c0-0.1,0.1-0.1,0.1-0.1s0.1,0.1,0.1,0.1v1.9
		C-298.6,222.9-298.6,223-298.7,223z"/>
</g>
<g>
	<path class="st1" d="M-297.7,222.9c-0.1,0-0.1-0.1-0.1-0.1v-1.9c0-0.1,0.1-0.1,0.1-0.1c0.1,0,0.1,0.1,0.1,0.1v1.9
		C-297.6,222.8-297.6,222.9-297.7,222.9z"/>
</g>
<g>
	<path class="st1" d="M-302.4,215.9c-0.1,0-0.1-0.1-0.1-0.1v-1.9c0-0.1,0.1-0.1,0.1-0.1s0.1,0.1,0.1,0.1v1.9
		C-302.2,215.8-302.3,215.9-302.4,215.9z"/>
</g>
<g>
	<path class="st1" d="M-301.4,215.3c-0.1,0-0.1-0.1-0.1-0.1v-1.6c0-0.1,0.1-0.1,0.1-0.1s0.1,0.1,0.1,0.1v1.6
		C-301.3,215.2-301.4,215.3-301.4,215.3z"/>
</g>
<g>
	<path class="st1" d="M-298.7,214.9c-0.1,0-0.1-0.1-0.1-0.1v-1.9c0-0.1,0.1-0.1,0.1-0.1s0.1,0.1,0.1,0.1v1.9
		C-298.6,214.9-298.6,214.9-298.7,214.9z"/>
</g>
<g>
	<path class="st1" d="M-296.5,213.8c-0.1,0-0.1-0.1-0.1-0.1v-1.3c0-0.1,0.1-0.1,0.1-0.1s0.1,0.1,0.1,0.1v1.3
		C-296.3,213.7-296.4,213.8-296.5,213.8z"/>
</g>
<g>
	<path class="st1" d="M-303,223c-0.1,0-0.1-0.1-0.1-0.1V221c0-0.1,0.1-0.1,0.1-0.1s0.1,0.1,0.1,0.1v1.9
		C-302.9,222.9-302.9,223-303,223z"/>
</g>
<g>
	<path class="st1" d="M-297.7,214.7c-0.1,0-0.1-0.1-0.1-0.1v-2.1c0-0.1,0.1-0.1,0.1-0.1c0.1,0,0.1,0.1,0.1,0.1v2.1
		C-297.6,214.6-297.6,214.7-297.7,214.7z"/>
</g>
<g>
	<path class="st1" d="M-303.4,216.3c-0.1,0-0.1-0.1-0.1-0.1v-1.4c0-0.1,0.1-0.1,0.1-0.1s0.1,0.1,0.1,0.1v1.4
		C-303.2,216.3-303.3,216.3-303.4,216.3z"/>
</g>
<g>
	<path class="st1" d="M-296.6,222.5c-0.1,0-0.1-0.1-0.1-0.1v-1.1c0-0.1,0.1-0.1,0.1-0.1c0.1,0,0.1,0.1,0.1,0.1v1.1
		C-296.5,222.4-296.5,222.5-296.6,222.5z"/>
</g>
<g class="st5">
	
		<ellipse transform="matrix(-0.9945 0.1043 -0.1043 -0.9945 -559.2369 446.4197)" class="st6" cx="-291.3" cy="208.6" rx="0.6" ry="0.9"/>
</g>
<g class="st5">
	<path class="st6" d="M-292.2,206.8c0.4-0.2,0.9,0.1,1.3,0.6c0.3,0.6,0.3,1.2,0,1.4c-0.4,0.2-0.9-0.1-1.3-0.6
		C-292.6,207.6-292.6,207-292.2,206.8z"/>
</g>
<g>
	<path class="st1" d="M-303.4,195.7c-0.2,0-0.4-0.1-0.4-0.3c-0.3-1.3-1.1-4.3-0.9-5c0.1-0.2,0.3-0.4,0.6-0.3
		c0.2,0.1,0.4,0.3,0.3,0.6c-0.1,0.4,0.4,2.7,0.9,4.5c0.1,0.2-0.1,0.5-0.3,0.5C-303.4,195.7-303.4,195.7-303.4,195.7z"/>
</g>
<g>
	<path class="st1" d="M-297.3,195.7c-0.1,0-0.1,0-0.2,0c-0.2-0.1-0.4-0.3-0.3-0.5c0-0.2,0.2-0.4,0.4-0.4c0,0,0,0,0,0
		c0.3-0.4,0.6-2.3,0.6-4.3c0-0.2,0.2-0.5,0.5-0.4c0.2,0,0.4,0.2,0.4,0.5c0,1.3-0.1,4.4-1,5.1C-297,195.6-297.2,195.7-297.3,195.7z"
		/>
</g>
<g>
	<path class="st1" d="M-300.3,196c-0.2,0-0.4-0.2-0.4-0.4v-3.8c0-0.2,0.2-0.4,0.4-0.4s0.4,0.2,0.4,0.4v3.8
		C-299.9,195.8-300.1,196-300.3,196z"/>
</g>
<g>
	<path class="st1" d="M-300.7,232.7c-5.4,0-5.4-6.2-5.4-6.2c0-0.2,0.1-0.3,0.3-0.3c0,0,0,0,0,0c0.2,0,0.3,0.1,0.3,0.3
		c0,0.2,0.1,5.6,4.8,5.6c4.9,0,5-5.4,5-5.6c0-0.2,0.1-0.3,0.3-0.3c0,0,0,0,0,0c0.2,0,0.3,0.1,0.3,0.3
		C-295.2,226.5-295.2,232.7-300.7,232.7z"/>
</g>
<g>
	<path class="st1" d="M-295.2,213.8c-0.1,0-0.1-0.1-0.1-0.1v-1.4c0-0.1,0.1-0.1,0.1-0.1s0.1,0.1,0.1,0.1v1.4
		C-295,213.7-295.1,213.8-295.2,213.8z"/>
</g>
<g>
	<path class="st1" d="M-304.5,216.5c-0.1,0-0.1-0.1-0.1-0.1v-0.7c0-0.1,0.1-0.1,0.1-0.1s0.1,0.1,0.1,0.1v0.7
		C-304.4,216.4-304.5,216.5-304.5,216.5z"/>
</g>
<g>
	<g>
		<path class="st1" d="M-286.5,208.4C-286.5,208.4-286.6,208.4-286.5,208.4c-0.1-0.1-0.2-0.1-0.1-0.2c0.2-0.3,0.9-1.6,1.4-1.7
			c0.3,0,0.5,0.4,0.7,0.7c0,0.1,0,0.2-0.1,0.2c-0.1,0-0.2,0-0.2-0.1c-0.1-0.2-0.3-0.5-0.4-0.5c-0.3,0.1-0.9,0.9-1.2,1.6
			C-286.4,208.3-286.5,208.4-286.5,208.4z"/>
	</g>
	<g>
		<path class="st1" d="M-286.5,209.2C-286.5,209.2-286.5,209.2-286.5,209.2c-0.1,0-0.2-0.1-0.1-0.2c0.1-0.3,0.5-1.9,0.9-2.2
			c0.1,0,0.2,0,0.2,0.1c0,0.1,0,0.2-0.1,0.2c-0.2,0.1-0.6,1.1-0.8,2C-286.3,209.2-286.4,209.2-286.5,209.2z"/>
	</g>
	<g>
		<path class="st1" d="M-286.4,208.7C-286.4,208.7-286.4,208.7-286.4,208.7c-0.1,0-0.2-0.1-0.1-0.2c0.1-0.3,0.8-1.8,1.3-2
			c0.1,0,0.2,0,0.2,0.1c0,0.1,0,0.2-0.1,0.2c-0.3,0.1-0.8,1.1-1.1,1.8C-286.3,208.6-286.3,208.7-286.4,208.7z"/>
	</g>
</g>
<g>
	<path class="st1" d="M-314.8,208.6c0,0-0.1,0-0.1,0c0,0-0.1-0.1,0-0.1c0-0.2-0.4-1-0.8-1.3c-0.1-0.1-0.2-0.1-0.3-0.1
		c-0.1,0-0.2,0-0.2-0.1c0-0.1,0-0.2,0.1-0.2c0.4-0.1,0.8,0.2,1.2,0.8c0.1,0.1,0.5,0.9,0.3,1C-314.7,208.6-314.7,208.6-314.8,208.6z"
		/>
</g>
<g>
	<g>
		<path class="st1" d="M-314.5,208.4c-0.1,0-0.1,0-0.1-0.1c-0.4-0.7-1-1.5-1.2-1.6c-0.2,0-0.3,0.4-0.4,0.5c0,0.1-0.1,0.1-0.2,0.1
			c-0.1,0-0.1-0.1-0.1-0.2c0-0.1,0.2-0.7,0.7-0.7c0.5,0,1.3,1.3,1.5,1.7C-314.3,208.2-314.4,208.3-314.5,208.4
			C-314.5,208.4-314.5,208.4-314.5,208.4z"/>
	</g>
	<g>
		<path class="st1" d="M-314.5,209.2c-0.1,0-0.1,0-0.1-0.1c-0.2-0.9-0.5-1.8-0.8-2c-0.1,0-0.1-0.1-0.1-0.2c0-0.1,0.1-0.1,0.2-0.1
			c0.5,0.2,0.8,1.8,0.9,2.2C-314.3,209.1-314.4,209.1-314.5,209.2C-314.5,209.2-314.5,209.2-314.5,209.2z"/>
	</g>
</g>
<g>
	<polyline class="st4" points="-313.8,197.6 -314.3,208.2 -315.4,203.4 	"/>
	<path class="st1" d="M-314.3,208.5c-0.1,0-0.3-0.1-0.3-0.2l-1.2-4.8c0-0.2,0.1-0.3,0.2-0.4c0.2,0,0.3,0.1,0.4,0.2l0.7,2.7l0.4-8.5
		c0-0.2,0.2-0.3,0.3-0.3c0.2,0,0.3,0.1,0.3,0.3l-0.4,10.6C-314,208.3-314.1,208.5-314.3,208.5C-314.2,208.5-314.3,208.5-314.3,208.5
		z"/>
</g>
<g>
	<g>
		<g>
			<path class="st1" d="M-300.6,212.2c-0.9,0-1.5-0.9-1.5-0.9c-0.1-0.2-0.1-0.4,0.1-0.5c0.2-0.1,0.4-0.1,0.5,0.1
				c0,0,0.4,0.6,0.9,0.6c0.7,0,1-0.5,1-0.5c0.1-0.2,0.4-0.2,0.5-0.1c0.2,0.1,0.2,0.4,0.1,0.5C-299,211.4-299.6,212.2-300.6,212.2z"
				/>
		</g>
		<g>
			<path class="st0" d="M-298.1,209.6c0.3,1-0.6,1.4-0.6,1.4"/>
			<path class="st1" d="M-298.7,211.4c-0.1,0-0.3-0.1-0.3-0.2c-0.1-0.2,0-0.4,0.2-0.5c0.1,0,0.6-0.3,0.4-1c-0.1-0.2,0.1-0.4,0.3-0.5
				c0.2-0.1,0.4,0.1,0.5,0.3c0.3,1-0.4,1.6-0.8,1.8C-298.6,211.4-298.7,211.4-298.7,211.4z"/>
		</g>
		<g>
			<path class="st0" d="M-303,209.6c-0.3,1,0.6,1.4,0.6,1.4"/>
			<path class="st1" d="M-302.4,211.4c-0.1,0-0.1,0-0.2,0c-0.4-0.2-1.1-0.8-0.8-1.8c0.1-0.2,0.3-0.3,0.5-0.3
				c0.2,0.1,0.3,0.3,0.3,0.5c-0.2,0.6,0.4,0.9,0.4,1c0.2,0.1,0.2,0.3,0.2,0.5C-302.1,211.3-302.2,211.4-302.4,211.4z"/>
		</g>
	</g>
</g>
<g>
	<path class="st1" d="M-310.7,203.4c-0.3,0-0.5-0.2-0.6-0.5c-0.1-0.3,0.1-0.6,0.4-0.7l6.2-1.6c0.3-0.1,0.6,0.1,0.7,0.4
		c0.1,0.3-0.1,0.6-0.4,0.7l-6.2,1.6C-310.6,203.4-310.7,203.4-310.7,203.4z"/>
</g>
<g>
	<path class="st0" d="M-296.2,201c1.4,0.2,1.3,0.2,3.3,0.5c1.6,0.3,3.2,1.2,3.2,1.2"/>
	<path class="st1" d="M-289.8,203.3c-0.1,0-0.2,0-0.3-0.1c0,0-1.6-0.9-3-1.1c-1.5-0.3-1.7-0.3-2.4-0.4l-0.8-0.1
		c-0.3,0-0.6-0.4-0.5-0.7c0-0.3,0.4-0.6,0.7-0.5l0.8,0.1c0.7,0.1,1,0.1,2.5,0.4c1.6,0.3,3.3,1.2,3.4,1.3c0.3,0.2,0.4,0.5,0.2,0.8
		C-289.4,203.2-289.6,203.3-289.8,203.3z"/>
</g>
<path class="st7" d="M99.1-16.5"/>
<g>
	<path class="st1" d="M-286.4,208.6c-0.1,0-0.1,0-0.1-0.1c-0.1-0.2,0.6-1.2,0.9-1.5c0.3-0.3,0.5-0.4,0.7-0.3c0.1,0,0.1,0.1,0.1,0.2
		c0,0.1-0.1,0.1-0.2,0.1c0,0-0.1,0-0.1,0c-0.4,0.2-1,1.3-1,1.5C-286.2,208.5-286.3,208.6-286.4,208.6
		C-286.3,208.6-286.4,208.6-286.4,208.6z"/>
</g>
</svg>
