<?xml version="1.0" encoding="utf-8"?>
<!-- Generator: Adobe Illustrator 19.0.1, SVG Export Plug-In . SVG Version: 6.00 Build 0)  -->
<svg version="1.1" id="Layer_1" xmlns="http://www.w3.org/2000/svg" xmlns:xlink="http://www.w3.org/1999/xlink" x="0px" y="0px"
	 viewBox="0 0 335.1 72.8" style="enable-background:new 0 0 335.1 72.8;" xml:space="preserve">
<style type="text/css">
	.st0{fill:#45B29A;}
</style>
<g>
	<path class="st0" d="M4.7,67c-1.1,0-1.9-0.3-2.5-0.8c-0.5-0.5-0.8-1.2-0.8-2c0-1,0.3-1.7,1-2.3c0.7-0.6,1.6-1.1,2.7-1.4
		c1.1-0.4,2.4-0.6,3.7-0.8c1.4-0.2,2.7-0.3,4.1-0.5l4.2-0.2c-0.1-4.4-0.2-8.6-0.4-12.5c-0.2-3.9-0.4-7.9-0.5-12
		c-0.2-3.7-0.3-7.2-0.4-10.5c-0.1-3.3-0.2-7.1-0.3-11.2c-2,0.2-4,0.3-5.9,0.4c-2,0.1-4,0.1-6.1,0.1c-1.1,0-1.9-0.3-2.5-0.8
		c-0.5-0.5-0.8-1.2-0.8-2c0-0.9,0.4-1.8,1.1-2.7c0.8-0.9,1.7-1.4,2.8-1.4c6.4-0.2,11.8-0.5,16.1-1S28.6,4,32.4,2.6H33
		c1.2,0,2.1,0.3,2.6,0.8c0.6,0.6,0.8,1.3,0.8,2.2c0,1.7-1,3-3.1,3.8c-2.1,0.9-5.8,1.7-11,2.4c0.1,4.3,0.2,8.4,0.4,12.4
		c0.2,3.9,0.4,7.9,0.5,12c0.2,3.6,0.3,7,0.5,10.3c0.2,3.3,0.3,7,0.4,11c2.3-0.6,4.6-1.2,6.8-1.8c2.2-0.6,4.5-1.3,6.8-2h1
		c1,0,1.8,0.2,2.2,0.7c0.4,0.5,0.6,1.1,0.6,1.8c0,1-0.7,2-2,2.9c-1.4,0.9-3.1,1.7-5.3,2.5c-2.2,0.8-4.7,1.5-7.4,2.1
		c-2.7,0.6-5.4,1.2-8.2,1.6c-2.7,0.4-5.3,0.8-7.7,1.1C8.3,66.7,6.3,66.9,4.7,67z"/>
	<path class="st0" d="M48.2,16.1c-1.4-0.5-2.2-1.4-2.2-2.8c0-0.9,0.4-1.7,1.2-2.6c0.8-0.8,1.8-1.3,2.9-1.3c1.5,0,2.9,0.7,4.1,2
		c1.2,1.3,1.9,3.4,1.9,6.2c0,2-0.3,4.3-0.8,6.9c-0.5,2.6-1.1,4.9-1.6,6.8l-1.1,4.3c-0.4,0.8-1,1.5-1.8,2.1c-0.8,0.6-1.5,0.9-2.2,0.9
		c-0.7,0-1.3-0.3-1.9-0.8c-0.5-0.5-0.8-1.4-0.8-2.6c0.1-0.6,0.2-1.3,0.4-2c0.2-0.7,0.3-1.4,0.5-2.2v0.1c0.5-1.8,1-3.9,1.5-6.1
		c0.5-2.2,0.8-4.1,0.8-5.8c0-1.8-0.4-2.9-1.1-3.2H48.2z"/>
	<path class="st0" d="M62.6,27.6c0.2-0.8,0.8-1.6,1.6-2.3c0.8-0.7,1.6-1.1,2.5-1.1c1.8,0,2.6,1.4,2.6,4.1c0,1.8,0,3.6,0.1,5.5
		c0.1,1.9,0.2,3.7,0.4,5.3c0.5-1.6,1-3.2,1.6-4.8c0.6-1.6,1.3-3,2-4.3c0.8-1.2,1.6-2.3,2.5-3.1c0.9-0.8,1.9-1.2,2.9-1.2
		c0.7,0,1.5,0.2,2.2,0.7c0.8,0.5,1.3,1.3,1.7,2.4c0.8,2.3,1.4,4.5,1.7,6.5s0.7,4,1,5.9c0.4,2.3,0.8,4.6,1.3,6.9
		c0.4,2.3,1,4.5,1.6,6.5c1.6-2.6,2.8-5,3.6-7.2c0.8-2.2,1.6-4.5,2.3-6.8c0.2-1.1,0.6-2.4,1-3.8c0.4-1.4,1.1-3,1.9-4.9
		c0.3-0.6,0.8-1.2,1.4-1.6c0.6-0.4,1.2-0.7,1.9-0.7c0.9,0,1.6,0.4,2.3,1.1c0.6,0.8,1.2,1.8,1.6,3.1c0.4,1.3,0.8,2.8,1.2,4.6
		c0.4,1.7,0.7,3.5,1,5.5c0.6,3.1,1.2,6.2,1.9,9.1c0.7,3,1.6,5.2,2.7,6.8c0.4-0.7,0.8-1.3,1.2-1.7c0.4-0.4,1.1-0.6,2.2-0.6
		c0.6,0,1.2,0.2,1.8,0.7c0.6,0.5,0.8,1.2,0.8,2.2c0,0.7-0.2,1.5-0.7,2.4c-0.4,0.9-1,1.7-1.7,2.5c-0.7,0.8-1.4,1.5-2.3,2
		c-0.8,0.5-1.6,0.8-2.3,0.8c-1.4,0-2.7-0.7-3.8-2.2s-2-3.2-2.9-5.4c-0.8-2.2-1.6-4.5-2.2-7.1c-0.6-2.6-1.1-4.9-1.5-7.1
		c-0.6,1.8-1.4,3.6-2.2,5.5c-0.8,1.9-1.8,3.6-2.8,5.2c-1,1.6-2.1,2.9-3.3,3.9c-1.2,1-2.3,1.6-3.5,1.6c-1.4,0-2.6-0.4-3.8-1.1
		c-0.7-0.5-1.4-1.5-2-3c-0.6-1.5-1.1-3.3-1.6-5.3c-0.5-2-0.9-4.1-1.3-6.4c-0.4-2.3-0.8-4.5-1.1-6.5c-0.2-0.7-0.3-1.3-0.3-1.6
		c0-0.4-0.1-0.6-0.1-0.8c0-0.2-0.1-0.4-0.1-0.5c0-0.2-0.1-0.4-0.2-0.8c-0.9,2.3-1.6,4.8-2.1,7.3c-0.5,2.6-1,5.1-1.4,7.7
		c-0.1,0.6-0.2,1.2-0.3,1.7c-0.1,0.5-0.2,1.1-0.2,1.7l-0.4,2.5c-0.2,1.1-0.3,2.3-0.5,3.7c-0.2,1.3-0.4,2.5-0.8,3.6
		c-0.4,1.1-0.9,2-1.5,2.7s-1.5,1.1-2.5,1.1c-1.2,0-2.1-0.4-2.8-1.3c-0.6-0.8-1.1-1.8-1.4-2.9c-0.3-1.1-0.5-2.3-0.5-3.5
		c0-1.2-0.1-2.1-0.1-2.8c0-1,0-2.1,0.1-3.2c0-1.1,0.1-2.2,0.2-3.4c0.1-1.1,0.1-2.2,0.2-3.2c0-1,0.1-2.1,0.1-3.2c0-0.2,0-0.5-0.1-0.7
		c0-0.2-0.1-0.5-0.1-0.8c-0.2-1.8-0.3-4-0.5-6.6c-0.2-2.6-0.3-5.6-0.3-9.2V27.6z"/>
	<path class="st0" d="M145.2,6c0-1.1,0.5-2.1,1.4-2.9c0.9-0.8,1.8-1.3,2.7-1.3c1.5,0,2.4,0.9,2.8,2.6c0.1,1.1,0.1,2.2,0.2,3.2
		c0,1,0.1,2.1,0.1,3.2c2.1-2.1,4.5-3.8,7.1-5.2c2.7-1.4,5.3-2,7.9-2c1.8,0,3.5,0.3,5.2,0.8c1.7,0.6,3.2,1.4,4.6,2.5
		c1.3,1.1,2.4,2.4,3.2,4c0.8,1.6,1.2,3.4,1.2,5.5c0,2.8-0.6,5.5-1.9,8.2c-1.3,2.7-3,5.2-5,7.7c-2.1,2.4-4.4,4.7-7.1,6.7
		c-2.6,2-5.3,3.8-8,5.3c1.5,0.5,3,0.9,4.5,1.3c1.5,0.4,3.1,0.9,4.9,1.6c2.7,1.1,5.4,2.3,7.9,3.6c2.6,1.3,5.1,2.6,7.7,3.8
		c1.5,0.7,3.1,1.5,4.6,2.3c1.6,0.8,3.1,1.5,4.6,2.2c0.4,0.5,0.7,0.9,1,1.4c0.3,0.4,0.4,0.9,0.4,1.4c0,1.1-0.5,2-1.4,2.7
		c-1,0.7-2.1,1-3.4,1l-6.7-3.4c-4.8-2.3-9.6-4.5-14.3-6.7c-4.8-2.1-10.1-4-16-5.6c0,0.4,0,0.8,0.1,1.3c0,0.5,0.1,1,0.1,1.4
		c0,0.7,0,1.5,0.1,2.2c0,0.8,0.1,1.5,0.1,2.3c0,1.3-0.1,2.5-0.2,3.8c-0.1,1.2-0.3,2.3-0.7,3.3c-0.3,1-0.8,1.7-1.3,2.3
		c-0.6,0.6-1.3,0.8-2.2,0.8c-1.3,0-2.3-0.9-3-2.6v-7.1c0-1.2,0-2.4,0.1-3.7c0-1.2,0.1-2.5,0.1-3.7c0-7.4-0.1-14.9-0.2-22.3
		C145.8,20.9,145.5,13.4,145.2,6z M174.4,17.3c0-2.3-0.7-4-2-5c-1.4-1-3-1.5-4.8-1.5c-2.1,0-3.9,0.4-5.5,1.3c-1.6,0.8-3,2-4.2,3.4
		c-1.2,1.4-2.2,3-3.1,4.8c-0.8,1.8-1.5,3.7-2,5.6l0.4,14.5c2.4-1.1,4.9-2.5,7.4-4.2c2.5-1.7,4.8-3.5,6.8-5.5c2-2,3.7-4.1,5-6.4
		C173.7,21.9,174.4,19.6,174.4,17.3z"/>
	<path class="st0" d="M195.2,57c-1.3-2.2-1.9-4.3-1.9-6.5c0-2.4,0.6-4.8,1.7-7.2c1.1-2.4,2.6-4.6,4.3-6.5c1.8-2,3.8-3.6,6-4.8
		c2.2-1.2,4.5-1.9,6.8-1.9c0.3,0,0.7,0,1.1,0c0.4,0,0.8,0,1.2,0.1l0.2-3.6c0.3-0.9,0.9-1.6,1.6-2.2c0.8-0.6,1.5-0.9,2.3-0.9
		c0.5,0,1,0.1,1.4,0.4c0.5,0.3,0.9,0.8,1.2,1.6c0,1.1,0,2.3-0.1,3.5c0,1.2-0.1,2.4-0.1,3.5c0,2.1,0,4.1-0.1,6.1c0,2-0.1,4-0.1,5.9
		c0,3.7,0.1,7.3,0.4,10.8c0.3,3.5,0.9,6.9,1.9,10.2c0.5,0.2,0.9,0.5,1.3,1c0.4,0.5,0.6,1,0.6,1.6c0,0.9-0.5,1.8-1.5,2.7
		c-1,0.9-2.1,1.4-3.3,1.4c-1,0-1.8-0.5-2.5-1.4c-0.7-1-1.2-2.2-1.7-3.6c-0.4-1.4-0.8-3-1.1-4.8c-0.3-1.8-0.5-3.4-0.5-5
		c-1.3,1.6-2.8,2.8-4.6,3.7c-1.8,0.8-3.5,1.3-5.3,1.3c-1.9,0-3.7-0.4-5.4-1.3c-1.7-0.8-3.1-2.1-4.2-3.9V57z M211.3,50.3
		c0.6-1.2,1.2-2.6,1.6-4.2c0.4-1.6,0.6-3.1,0.6-4.6c0-1.6-0.2-2.7-0.6-3.4c-0.4-0.7-1.1-1-2-1c-1.3,0-2.6,0.4-3.8,1.2
		c-1.3,0.8-2.4,1.8-3.4,3c-1,1.2-1.8,2.5-2.5,4c-0.6,1.4-1,2.8-1,4.2c0,1.8,0.5,3.1,1.6,4c1.1,0.9,2.1,1.4,3.2,1.4
		c1.1,0,2.2-0.4,3.4-1.3C209.4,52.7,210.4,51.6,211.3,50.3z"/>
	<path class="st0" d="M226.1,47.8c-1.1-0.1-1.9-0.4-2.3-0.9c-0.4-0.5-0.7-1.1-0.7-1.9c0-0.9,0.4-1.7,1.1-2.5
		c0.8-0.8,1.7-1.3,2.8-1.4h1.4c1.1,0,2.2-0.1,3.4-0.2c1.1-0.1,2.3-0.3,3.5-0.4c0-3,0.1-6,0.2-8.9c0.1-2.9,0.3-5.9,0.4-8.9
		c0.4-7.5,1.4-12.9,2.9-16.2c1.5-3.3,3.1-4.9,4.8-4.9c0.3,0,0.7,0,1,0.1c0.4,0.1,0.7,0.3,1.1,0.7c2.2,2.4,3.6,5.1,4.4,8.2
		c0.8,3,1.1,6.1,1.1,9.2v1c0,1,0,1.9-0.1,2.9c0,1-0.2,1.9-0.4,2.8c-0.2,0.8-0.7,1.5-1.3,2.1c-0.6,0.6-1.4,0.8-2.5,0.8
		c-0.6,0-1.1-0.2-1.7-0.6c-0.6-0.4-1-1.1-1.3-2c0.1-0.9,0.1-1.8,0.2-2.8c0-1,0.1-2,0.1-2.9c0-1.2,0-2.4-0.1-3.5
		c-0.1-1.2-0.2-2.3-0.5-3.4c-0.6,3.9-1.1,8-1.3,12.2c-0.2,4.2-0.3,8.4-0.4,12.7c2.1-0.6,4.1-1.2,6.1-1.8c2-0.6,4-1.3,6.1-1.9v0.1
		l7.8-2.5c1.2,0,2,0.2,2.5,0.7c0.5,0.4,0.7,1.1,0.7,2c0,1.5-0.8,2.8-2.5,3.8c-1.1,0.4-2.3,0.8-3.5,1.1c-1.2,0.4-2.4,0.7-3.5,1.1
		c-2.5,0.8-4.8,1.6-6.8,2.3c-2.1,0.7-4.4,1.4-7,2c0,6.2,0.8,12.5,2.5,18.7c0,1.3-0.4,2.4-1.2,3.3c-0.8,0.9-1.7,1.4-2.8,1.4
		c-1.1,0-2-0.8-2.8-2.5s-1.3-3.6-1.6-5.9c-0.4-2.3-0.6-4.7-0.8-7.2c-0.2-2.5-0.2-4.6-0.2-6.2c-1.2,0.2-2.5,0.3-3.9,0.4
		c-1.4,0.1-2.8,0.1-4.1,0.1H226.1z"/>
	<path class="st0" d="M256.7,57c-1.3-2.2-1.9-4.3-1.9-6.5c0-2.4,0.6-4.8,1.7-7.2c1.1-2.4,2.6-4.6,4.3-6.5c1.8-2,3.8-3.6,6-4.8
		c2.2-1.2,4.5-1.9,6.8-1.9c0.3,0,0.7,0,1.1,0c0.4,0,0.8,0,1.2,0.1l0.2-3.6c0.3-0.9,0.9-1.6,1.6-2.2c0.8-0.6,1.5-0.9,2.3-0.9
		c0.5,0,1,0.1,1.4,0.4c0.5,0.3,0.9,0.8,1.2,1.6c0,1.1,0,2.3-0.1,3.5c0,1.2-0.1,2.4-0.1,3.5c0,2.1,0,4.1-0.1,6.1c0,2-0.1,4-0.1,5.9
		c0,3.7,0.1,7.3,0.4,10.8c0.3,3.5,0.9,6.9,1.9,10.2c0.5,0.2,0.9,0.5,1.3,1c0.4,0.5,0.6,1,0.6,1.6c0,0.9-0.5,1.8-1.5,2.7
		c-1,0.9-2.1,1.4-3.3,1.4c-1,0-1.8-0.5-2.5-1.4c-0.7-1-1.2-2.2-1.7-3.6c-0.4-1.4-0.8-3-1.1-4.8c-0.3-1.8-0.5-3.4-0.5-5
		c-1.3,1.6-2.8,2.8-4.6,3.7c-1.8,0.8-3.5,1.3-5.3,1.3c-1.9,0-3.7-0.4-5.4-1.3c-1.7-0.8-3.1-2.1-4.2-3.9V57z M272.8,50.3
		c0.6-1.2,1.2-2.6,1.6-4.2c0.4-1.6,0.6-3.1,0.6-4.6c0-1.6-0.2-2.7-0.6-3.4c-0.4-0.7-1.1-1-2-1c-1.3,0-2.6,0.4-3.8,1.2
		c-1.3,0.8-2.4,1.8-3.4,3c-1,1.2-1.8,2.5-2.5,4c-0.6,1.4-1,2.8-1,4.2c0,1.8,0.5,3.1,1.6,4c1.1,0.9,2.1,1.4,3.2,1.4
		c1.1,0,2.2-0.4,3.4-1.3C270.9,52.7,271.9,51.6,272.8,50.3z"/>
	<path class="st0" d="M290.8,49.4c0.1-3.4,0.4-6.4,1.1-9.1c0.6-2.7,1.4-5.1,2.4-7c1-2,2.1-3.5,3.3-4.6c1.2-1.1,2.5-1.6,3.9-1.6
		c1.6,0,3,0.3,4.2,1c1.2,0.7,2.2,1.6,3,2.6c0.8,1.1,1.4,2.3,1.8,3.8c0.4,1.4,0.6,2.9,0.6,4.3c0,4.2-1.2,7.5-3.7,9.8
		c-2.4,2.3-5.5,3.4-9.1,3.4c-0.2,0-0.2,0-0.2,0.1l-0.1-0.1c0.2,2.3,0.8,3.9,1.6,4.9c0.8,0.9,2,1.4,3.6,1.4c1.3,0,2.6-0.3,4-0.8
		c1.4-0.6,2.7-1.2,4-2c1.3-0.8,2.5-1.7,3.6-2.6c1.1-0.9,2.2-1.8,3.1-2.6c0.8-0.4,1.5-0.6,2-0.6c0.9,0,1.6,0.3,2.1,0.8
		c0.5,0.5,0.8,1.2,0.8,2.1c0,0.7-0.3,1.5-1,2.3c-0.7,0.8-1.5,1.7-2.5,2.5c-1,0.8-2,1.6-3.1,2.4c-1.1,0.8-2.1,1.4-2.9,1.9
		c-2.2,1.3-4.2,2.2-6.2,2.8c-2,0.6-3.8,0.9-5.4,0.9c-3.8,0-6.5-1.4-8.2-4.1c-1.7-2.8-2.6-6.2-2.6-10.4V49.4z M301.4,34.1
		c-0.7,0.6-1.4,2-2.1,4c-0.7,2-1.2,4.4-1.5,7c0.2,0.1,0.4,0.1,0.7,0.1c0.3,0,0.5,0,0.7,0c1.5,0,2.8-0.4,3.8-1.3
		c1-0.9,1.6-2.2,1.6-4.1c0-1.4-0.3-2.7-0.8-4c-0.5-1.3-1.1-1.9-1.9-1.9C301.7,34,301.5,34,301.4,34.1z"/>
	<path class="st0" d="M323.5,6.7c0-1.1,0.4-2.1,1.3-2.9c0.8-0.8,1.7-1.2,2.7-1.2c0.6,0,1.3,0.2,1.9,0.6c0.6,0.4,1,1.2,1.1,2.3
		c0.1,4.8,0.2,9.6,0.4,14.5c0.2,4.9,0.3,9.8,0.5,14.6c0.2,4.9,0.5,9.7,0.7,14.6c0.2,4.8,0.3,9.7,0.4,14.7c-0.2,0.9-0.6,1.7-1.3,2.3
		c-0.7,0.7-1.5,1-2.3,1c-0.6,0-1.2-0.2-1.8-0.6c-0.6-0.4-1-1-1.4-1.9c-0.1-5.1-0.2-10.2-0.4-15.3c-0.2-5.1-0.4-10.1-0.6-15.2v0.1
		c-0.2-4.6-0.5-9.2-0.7-13.8C323.7,16,323.6,11.4,323.5,6.7z"/>
</g>
</svg>
