<?xml version="1.0" encoding="utf-8"?>
<!-- Generator: Adobe Illustrator 19.0.1, SVG Export Plug-In . SVG Version: 6.00 Build 0)  -->
<svg version="1.1" id="Layer_1" xmlns="http://www.w3.org/2000/svg" xmlns:xlink="http://www.w3.org/1999/xlink" x="0px" y="0px"
	 viewBox="0 0 171.1 75.7" style="enable-background:new 0 0 171.1 75.7;" xml:space="preserve">
<style type="text/css">
	.st0{fill:#45B29A;}
</style>
<g>
	<path class="st0" d="M5.6,6.9c0-1,0.2-1.8,0.7-2.4c0.5-0.6,1.3-1,2.4-1c1.4,0,2.7,1,4,3c1.3,2,2.8,4.4,4.4,7.1l2.5,4.4
		c2.1,3.6,4.4,7.6,7,12.1c2.6,4.4,5.1,8.8,7.5,13c2.4,4.2,4.7,8.1,6.8,11.6c2.1,3.5,3.8,6.2,5,8l-1.6-11.2
		c-0.6-4.2-1.2-8.2-1.6-11.9c-0.4-3.7-0.8-7.3-1.2-10.9c-0.4-3.6-0.7-7.3-1-11c-0.3-3.7-0.6-7.7-1-12.1c0-1.2,0.4-2.2,1.3-3.1
		c0.9-0.9,1.8-1.3,2.6-1.3c1.6,0,2.6,0.8,2.9,2.5c0.3,4.3,0.6,8.3,0.9,12.1c0.3,3.7,0.6,7.4,1,10.9c0.4,3.6,0.8,7.2,1.3,10.9
		c0.5,3.7,1,7.7,1.7,12.1c0.2,1.6,0.5,3.4,0.7,5.3c0.2,1.9,0.4,3.8,0.5,5.7c0.2,1.9,0.3,3.7,0.4,5.3c0.1,1.7,0.1,3,0.1,4.1
		c0,1.4-0.3,2.7-0.8,3.8c-0.6,1.1-1.6,1.7-3.2,1.7c-1,0-1.9-0.4-2.6-1.2c-0.9-0.7-2-2-3.3-3.9c-1.3-1.9-2.8-4.1-4.4-6.7
		c-1.6-2.6-3.4-5.4-5.2-8.5c-1.8-3.1-3.6-6.2-5.5-9.4c-1.9-3.2-3.7-6.4-5.5-9.5c-1.8-3.1-3.4-6-4.8-8.6c-1.8-3.4-3.1-5.6-3.7-6.8
		c-0.6-1.2-1-1.8-1.1-1.8c0,3,0,6.1-0.1,9.1c0,3-0.1,6.2-0.2,9.4c-0.1,3.5-0.1,7.4-0.2,11.6c0,4.2-0.1,8-0.1,11.5
		c0,0.8,0,1.6,0.1,2.3c0,0.7,0.1,1.5,0.1,2.3v4.4c0,1.1-0.4,2-1.3,2.6c-0.9,0.6-1.8,0.9-2.6,0.9c-0.9,0-1.6-0.2-2-0.5
		c-0.5-0.4-0.8-0.8-1-1.4C5.1,70.7,5,70,5,69.3c0-0.7,0-1.4,0-2.2v-0.8c0-4.5,0-8.9,0.1-13.3c0.1-4.4,0.2-8.7,0.2-13
		c0.1-4.3,0.1-8.7,0.2-13c0-4.4,0.1-8.7,0.1-13V6.9z"/>
	<path class="st0" d="M70.1,37c1.4,0.3,2.8,0.9,4.1,1.7c1.3,0.8,2.5,1.8,3.5,2.9c1,1.1,1.9,2.4,2.5,3.8c0.6,1.4,1,2.9,1,4.4
		c0,1.4-0.4,2.9-1.1,4.6c-0.8,1.7-1.8,3.3-3.2,4.7c-1.4,1.5-3,2.7-4.9,3.7c-1.9,1-3.9,1.5-6.2,1.5c-2.8,0-4.9-0.8-6.2-2.5
		c-1.4-1.7-2-3.9-2-6.7c0-2.5,0.4-5.1,1.3-7.9c0.8-2.8,1.6-5.1,2.2-6.9c0.1-1.4,0.6-2.4,1.6-3c1-0.6,2.1-1,3.4-1
		c0.9,0,1.6,0.1,2.3,0.2c0.6,0.2,1.3,0.3,1.9,0.5H70.1z M70,44.6c-0.6-0.2-1.2-0.3-1.7-0.5c-0.5-0.2-1-0.2-1.7-0.2
		c-0.3,0-0.6,0.3-0.8,1c-0.2,0.6-0.4,1.4-0.5,2.3c-0.1,0.9-0.2,1.9-0.3,2.9c-0.1,1-0.1,1.9-0.1,2.6c0,1.8,0.1,2.9,0.4,3.4
		c0.3,0.5,0.9,0.8,1.9,0.8c2.1,0,3.8-0.7,5.3-2.2c1.4-1.5,2.2-3.1,2.2-4.9c0-1-0.3-2-1-2.9c-0.7-0.9-1.9-1.7-3.5-2.2V44.6z"/>
	<path class="st0" d="M85.5,53.2c-2.2,0-3.2-0.9-3.2-2.8c0-0.6,0.3-1.4,0.9-2.2c0.6-0.8,1.3-1.5,2.1-1.9l4.4-1
		c-0.2-2.3-0.2-4.6-0.2-7c0-2.3,0.1-4.6,0.1-7c0-2.5,0-4.9-0.1-7.4c0-2.4-0.1-4.9-0.2-7.5c0,0.1,0-0.2-0.1-0.8
		c-0.1-0.6-0.2-1.2-0.2-1.7c-0.2-1-0.3-2.2-0.5-3.5c-0.2-1.3-0.2-2.5-0.2-3.6c0-1.8,0.3-3.3,0.9-4.6c0.6-1.3,1.6-2,2.9-2
		c1,0,1.7,0.7,2.3,2c0.6,1.3,1,2.9,1.3,4.9c0.3,1.9,0.5,4,0.6,6.2c0.1,2.2,0.2,4.2,0.2,5.9c0,3.2,0,6.3-0.1,9.2
		c-0.1,2.9-0.1,5.8-0.1,8.7c0,1.4,0,2.5-0.1,3.5c0,1,0,2.1,0.1,3.5c2.3-0.4,4.7-0.7,7.3-1c2.5-0.3,5-0.6,7.4-0.9
		c0.2,0,0.4,0,0.6-0.1c0.2,0,0.4-0.1,0.6-0.1c1,0.2,1.7,0.5,2.1,0.9c0.4,0.4,0.5,1.1,0.5,1.9c0,0.8-0.4,1.6-1.1,2.4
		c-0.7,0.8-1.5,1.4-2.4,1.8c-2.8,0.2-5.3,0.5-7.4,0.7c-2.2,0.2-4.6,0.6-7.2,1.1c0.1,1,0.1,1.9,0.1,2.7c0,0.8-0.1,1.7-0.1,2.5
		c0,1.8,0,3.4,0.1,4.7c0.1,1.3,0.3,2.4,0.7,3.5l1.1-0.6c0.6-0.3,1.2-0.5,1.8-0.5c0.9,0,1.6,0.3,2.1,0.8c0.5,0.6,0.8,1.2,0.8,2
		c0,1-0.5,2-1.4,3c-1.2,1-2.3,1.8-3.4,2.4c-1,0.6-1.8,1-2.2,1c-1.5,0-2.7-0.5-3.5-1.6s-1.4-2.5-1.8-4.1s-0.6-3.5-0.7-5.5
		c-0.1-2-0.1-4-0.1-5.9c0-0.8,0-1.3,0.1-1.6c0-0.3,0-0.7-0.1-1.4c-0.6,0.1-1.4,0.2-2.2,0.4c-0.8,0.2-1.5,0.4-2.2,0.5H85.5z"/>
	<path class="st0" d="M111.3,54.1c0.1-3.4,0.4-6.4,1.1-9.1c0.6-2.7,1.4-5.1,2.4-7c1-2,2.1-3.5,3.3-4.6c1.2-1.1,2.5-1.6,3.9-1.6
		c1.6,0,3,0.3,4.2,1c1.2,0.7,2.2,1.6,3,2.6c0.8,1.1,1.4,2.3,1.8,3.8c0.4,1.4,0.6,2.9,0.6,4.3c0,4.2-1.2,7.5-3.7,9.8
		c-2.4,2.3-5.5,3.4-9.1,3.4c-0.2,0-0.2,0-0.2,0.1l-0.1-0.1c0.2,2.3,0.8,3.9,1.6,4.9c0.8,0.9,2,1.4,3.6,1.4c1.3,0,2.6-0.3,4-0.8
		c1.4-0.6,2.7-1.2,4-2c1.3-0.8,2.5-1.7,3.6-2.6c1.1-0.9,2.2-1.8,3.1-2.6c0.8-0.4,1.5-0.6,2-0.6c0.9,0,1.6,0.3,2.1,0.8
		c0.5,0.5,0.8,1.2,0.8,2.1c0,0.7-0.3,1.5-1,2.3c-0.7,0.8-1.5,1.7-2.5,2.5s-2,1.6-3.1,2.4c-1.1,0.8-2.1,1.4-2.9,1.9
		c-2.2,1.3-4.2,2.2-6.2,2.8c-2,0.6-3.8,0.9-5.4,0.9c-3.8,0-6.5-1.4-8.2-4.1c-1.7-2.8-2.6-6.2-2.6-10.4V54.1z M122,38.7
		c-0.7,0.6-1.4,2-2.1,4c-0.7,2-1.2,4.4-1.5,7c0.2,0.1,0.4,0.1,0.7,0.1c0.3,0,0.5,0,0.7,0c1.5,0,2.8-0.4,3.8-1.3
		c1-0.9,1.6-2.2,1.6-4.1c0-1.4-0.3-2.7-0.8-4c-0.5-1.3-1.1-1.9-1.9-1.9C122.3,38.6,122.1,38.6,122,38.7z"/>
	<path class="st0" d="M165.1,38.4c0,1.1-0.4,2.1-1.3,3c-0.8,0.9-1.7,1.3-2.6,1.3c-0.9,0-1.5-0.3-1.9-0.8c-0.4-0.5-0.8-1.1-1.2-1.7
		c-0.4-0.6-0.8-1.2-1.1-1.7c-0.3-0.5-0.8-0.8-1.3-0.8c-1.1,0-2.3,0.5-3.4,1.6c-1.2,1.1-1.7,2.2-1.7,3.4c0,0.4,0,0.6,0.1,0.6
		c0.2,0.6,0.9,1.5,2.1,2.5c1.2,1,2.7,2.1,4.4,3.4c1.4,1,2.9,2,4.3,3.1c1.4,1.1,2.7,2.3,3.9,3.5c1.2,1.2,2.1,2.4,2.8,3.6
		c0.7,1.2,1.1,2.4,1.1,3.6c0,1.6-0.4,3-1.2,4.1c-0.8,1.2-1.8,2.1-3.1,2.9c-1.2,0.8-2.6,1.3-4.1,1.7c-1.5,0.4-2.9,0.5-4.1,0.5
		c-2.3,0-4.5-0.5-6.7-1.4c-2.1-1-4-2.2-5.7-3.8c-1.7-1.6-3.1-3.4-4.1-5.4s-1.8-4.1-2.1-6.2c0-1.1,0.4-2.2,1.1-3.1
		c0.8-1,1.6-1.4,2.6-1.4c0.5,0,1,0.1,1.5,0.4c0.5,0.3,1,0.7,1.4,1.3c0.2,1.4,0.8,2.9,1.6,4.4c0.8,1.5,1.8,2.9,2.9,4.2
		c1.1,1.3,2.4,2.3,3.8,3.1c1.4,0.8,2.8,1.2,4.1,1.2c0.2,0,0.6,0,1.2-0.1c0.6-0.1,1.1-0.2,1.7-0.4c0.6-0.2,1.1-0.5,1.5-0.8
		c0.4-0.3,0.7-0.7,0.7-1.1c0-0.9-0.8-1.9-2.4-3.1c-1.6-1.2-3.3-2.5-5.2-3.8c-0.7-0.6-1.4-1.1-2.2-1.6c-0.7-0.5-1.4-1.1-2-1.6
		l-1.4-1.2c-1.1-0.9-2.2-1.9-3.4-3.1c-1.1-1.2-1.7-2.4-1.7-3.8c0-2.1,0.4-4,1.1-5.7c0.8-1.7,1.8-3.2,3-4.4c1.2-1.2,2.6-2.2,4.1-2.9
		c1.5-0.7,3-1,4.6-1c1.9,0,3.6,0.5,5.1,1.6c1.5,1.1,2.5,2.8,3.2,5.2V38.4z"/>
</g>
</svg>
