<?xml version="1.0" encoding="utf-8"?>
<!-- Generator: Adobe Illustrator 19.0.1, SVG Export Plug-In . SVG Version: 6.00 Build 0)  -->
<svg version="1.1" id="Layer_1" xmlns="http://www.w3.org/2000/svg" xmlns:xlink="http://www.w3.org/1999/xlink" x="0px" y="0px"
	 viewBox="0 0 158.8 81" style="enable-background:new 0 0 158.8 81;" xml:space="preserve">
<style type="text/css">
	.st0{fill:#45B29A;}
</style>
<g>
	<path class="st0" d="M15.6,76.4l-1.2-9.8c-0.5-3.9-1-8-1.6-12.2c-0.6-4.2-1.3-8.5-2.2-13c-0.9-4.4-2.1-9-3.4-13.6
		c-1.4-4.6-3-9.3-5-14.1v0.1c-0.2-0.4-0.4-0.8-0.5-1.1c-0.1-0.4-0.1-0.7-0.1-1c0-1.1,0.4-2,1.1-2.7c0.8-0.7,1.6-1,2.6-1
		c0.5,0,1,0.2,1.6,0.5c0.6,0.4,1.2,0.9,1.7,1.7c2.8,7.3,5,14.2,6.7,20.8c1.6,6.6,3,13.2,4,20c0.5-3.4,1.1-7.1,1.7-11
		c0.7-3.9,1.5-7.6,2.5-10.9c1-3.4,2.1-6.2,3.4-8.4c1.3-2.2,2.8-3.4,4.4-3.4c1.6,0,3.1,0.9,4.4,2.8c2.4,5.2,4.3,10.4,5.6,15.7
		c1.4,5.2,2.6,10.3,3.7,15.3c0.3,1.4,0.6,2.7,0.8,3.7c0.2,1,0.4,2,0.7,2.9c0.2,0.9,0.5,1.9,0.7,2.9c0.2,1,0.6,2.2,1.1,3.7
		c0.4-2.9,0.7-5.7,1-8.4c0.2-2.7,0.5-5.5,0.8-8.4c0.7-7.7,1.5-15.1,2.3-22.3s1.9-14.2,3.2-21c0.4-1.1,1-2,1.9-2.7
		c0.8-0.7,1.7-1,2.5-1c0.7,0,1.3,0.2,1.8,0.7c0.5,0.4,0.7,1.1,0.7,2.1V4c-0.8,5-1.5,9.4-2.1,13.2c-0.6,3.8-1.1,7.6-1.6,11.2
		c-0.4,3.6-0.9,7.4-1.3,11.3c-0.4,3.9-0.8,8.3-1.1,13.1c0,0.3,0,0.7,0,1.3c0,0.5,0,0.9-0.1,1.3c-0.2,2-0.4,4.4-0.6,7.1
		c-0.2,2.7-0.6,5.3-1.2,7.7c-0.6,2.4-1.3,4.5-2.3,6.2c-1,1.7-2.2,2.6-3.6,2.6c-0.9,0-1.7-0.5-2.5-1.6c-2-3.8-3.6-7.9-4.7-12.2
		c-1.1-4.3-2.2-8.8-3.4-13.4c-1-4.2-2-8.3-3.1-12.5s-2.5-8.2-4.3-12.1c-1.4,4.2-2.6,9.1-3.5,14.6c-0.9,5.5-1.6,10.9-2.3,16.1
		c-0.4,3.4-0.8,6.5-1.2,9.5c-0.4,3-0.9,5.8-1.4,8.3c-0.4,0.9-1,1.6-1.9,2.2c-0.8,0.6-1.6,0.9-2.3,0.9c-0.6,0-1.2-0.2-1.7-0.5
		C16.1,78,15.7,77.4,15.6,76.4z"/>
	<path class="st0" d="M77.7,40c1.4,0.3,2.8,0.9,4.1,1.7c1.3,0.8,2.5,1.8,3.5,2.9c1,1.1,1.9,2.4,2.5,3.8c0.6,1.4,1,2.9,1,4.4
		c0,1.4-0.4,2.9-1.1,4.6c-0.8,1.7-1.8,3.3-3.2,4.7c-1.4,1.5-3,2.7-4.9,3.7c-1.9,1-3.9,1.5-6.2,1.5c-2.8,0-4.9-0.8-6.2-2.5
		c-1.4-1.7-2-3.9-2-6.7c0-2.5,0.4-5.1,1.3-7.9c0.8-2.8,1.6-5.1,2.2-6.9c0.1-1.4,0.6-2.4,1.6-3c1-0.6,2.1-1,3.4-1
		c0.9,0,1.6,0.1,2.3,0.2c0.6,0.2,1.3,0.3,1.9,0.5H77.7z M77.6,47.6c-0.6-0.2-1.2-0.3-1.7-0.5c-0.5-0.2-1-0.2-1.7-0.2
		c-0.3,0-0.6,0.3-0.8,1c-0.2,0.6-0.4,1.4-0.5,2.3c-0.1,0.9-0.2,1.9-0.3,2.9c-0.1,1-0.1,1.9-0.1,2.6c0,1.8,0.1,2.9,0.4,3.4
		c0.3,0.5,0.9,0.8,1.9,0.8c2.1,0,3.8-0.7,5.3-2.2c1.4-1.5,2.2-3.1,2.2-4.9c0-1-0.3-2-1-2.9c-0.7-0.9-1.9-1.7-3.5-2.2V47.6z"/>
	<path class="st0" d="M92.9,38.1c0-1.1,0.5-2.1,1.4-2.9c0.9-0.8,1.8-1.2,2.7-1.2c1.9,0,2.9,1.4,2.9,4.2c0,2,0.1,4,0.2,6.1
		c0.2,2,0.3,4.1,0.5,6.1c0.6-1.3,1.4-2.5,2.2-3.8c0.8-1.2,1.7-2.3,2.8-3.3s2.3-1.7,3.7-2.3c1.4-0.6,2.9-0.9,4.6-0.9
		c1.3,0,2.3,0.2,3.1,0.7c0.8,0.4,1.1,1.2,1.1,2.3c0,0.9-0.4,1.7-1.3,2.4c-0.8,0.7-1.8,1.2-2.9,1.3c-2,0.5-3.7,1.5-5,3.1
		c-1.4,1.6-2.4,3.4-3.2,5.5c-0.8,2.1-1.4,4.3-1.7,6.5c-0.4,2.3-0.5,4.4-0.5,6.3l0.2,2.3c-0.2,1-0.6,1.8-1.4,2.5
		c-0.8,0.7-1.6,1.1-2.5,1.1c-0.5,0-1-0.2-1.5-0.6c-0.5-0.4-0.9-1.1-1.3-2c-0.2-1.4-0.4-2.8-0.6-4.1c-0.2-1.3-0.5-2.7-0.7-4.1
		c-0.6-4.1-1.2-8.2-1.7-12.2C93.2,46.9,92.9,42.6,92.9,38.1z"/>
	<path class="st0" d="M146.1,27.6c0.9-0.9,1.8-1.3,2.8-1.3c0.8,0,1.5,0.3,2,0.8c0.6,0.5,0.8,1.2,0.8,2.1c0,1-0.4,1.8-1.2,2.6
		l-4.2,4.3c-2.2,2.2-4.7,4.7-7.3,7.3c-2.6,2.6-5.5,5.4-8.6,8.4h0.5c4.7,0,9.4,0.9,14,2.8c4.6,1.9,8.5,4.7,11.5,8.5
		c0.4,0.8,0.6,1.5,0.6,2c0,1-0.4,1.9-1.1,2.6c-0.8,0.7-1.6,1.1-2.5,1.1c-1,0-1.8-0.4-2.6-1.2c-2.3-3.1-5.3-5.4-8.9-6.7
		c-3.6-1.4-7.5-2-11.5-2h-0.2c0.2,2.6,0.2,5,0.2,7.4c0,2.4,0,4.8,0.1,7.2c-0.2,1-0.6,1.9-1.4,2.7c-0.8,0.8-1.6,1.1-2.5,1.1
		c-0.6,0-1.1-0.2-1.6-0.5c-0.5-0.4-0.9-1-1.3-2c0-0.2,0-0.6-0.1-1.2c0-0.6-0.1-1.2-0.1-2c0-1.1,0-2.4,0-3.8c0-1.4,0-2.7,0-4
		c0-1.2,0-2.3,0.1-3.1c0-0.8,0.1-1.3,0.3-1.3v-2.3c-0.2,0-0.6,0-1.2,0c-0.6,0-1.4,0-2.2-0.1c-0.8,0-1.5-0.1-2.1-0.3
		c-0.6-0.2-0.9-0.4-0.9-0.6c0-0.9,0.2-1.7,0.7-2.4l4.7-4.6c-0.4-6.2-0.7-12.4-1-18.6c-0.3-6.2-0.5-12.5-0.7-18.7
		c0-1.1,0.5-2.1,1.4-3.1c0.9-0.9,1.9-1.4,2.8-1.4c0.6,0,1.1,0.2,1.7,0.7c0.6,0.5,0.9,1.2,1.1,2c0.1,4.9,0.2,9.7,0.4,14.6
		c0.2,4.8,0.4,9.7,0.7,14.7l0.2,4c2.4-2.2,4.8-4.4,7.1-6.7c2.3-2.3,4.6-4.5,7-6.8L146.1,27.6z"/>
</g>
</svg>
