<?xml version="1.0" encoding="utf-8"?>
<!-- Generator: Adobe Illustrator 19.0.1, SVG Export Plug-In . SVG Version: 6.00 Build 0)  -->
<svg version="1.1" id="Layer_2" xmlns="http://www.w3.org/2000/svg" xmlns:xlink="http://www.w3.org/1999/xlink" x="0px" y="0px"
	 viewBox="0 0 217 217" style="enable-background:new 0 0 217 217;" xml:space="preserve">
<style type="text/css">
	.st0{fill:#EBEBEB;}
	.st1{fill:#1E836C;stroke:#383049;stroke-width:4;stroke-miterlimit:10;}
	.st2{fill:#1E836C;}
	.st3{fill:#FACCB4;stroke:#383049;stroke-width:3;stroke-miterlimit:10;}
	.st4{fill:#FFBA9C;}
	.st5{fill:#FACCB4;stroke:#383049;stroke-width:4;stroke-miterlimit:10;}
	.st6{fill:#4F443E;stroke:#383049;stroke-width:4;stroke-linecap:round;stroke-linejoin:round;stroke-miterlimit:10;}
	.st7{fill:#FACCB4;stroke:#383049;stroke-miterlimit:10;}
	.st8{fill:#383049;stroke:#383049;stroke-miterlimit:10;}
	.st9{fill:#3E3450;stroke:#3E3450;stroke-miterlimit:10;}
	.st10{fill:none;stroke:#3E3450;stroke-width:3;stroke-linecap:round;stroke-miterlimit:10;}
	.st11{fill:none;stroke:#3E3450;stroke-linecap:round;stroke-miterlimit:10;}
	.st12{fill:#4F443E;stroke:#383049;stroke-width:2;stroke-linecap:round;stroke-linejoin:round;stroke-miterlimit:10;}
	.st13{opacity:0.6;fill:#E7AA90;}
	.st14{fill:none;stroke:#383049;stroke-width:3;stroke-linecap:round;stroke-miterlimit:10;}
	.st15{fill:none;stroke:#383049;stroke-width:2;stroke-linecap:round;stroke-miterlimit:10;}
	.st16{fill:none;stroke:#383049;stroke-linecap:round;stroke-miterlimit:10;}
	.st17{fill:none;stroke:#3E3450;stroke-width:2.5;stroke-linecap:round;stroke-miterlimit:10;}
	.st18{fill:#56545F;stroke:#3E3450;stroke-width:2.5;stroke-linecap:round;stroke-miterlimit:10;}
	.st19{fill:#56545F;stroke:#3E3450;stroke-width:4;stroke-linecap:round;stroke-miterlimit:10;}
	.st20{fill:#4F443E;stroke:#3E3450;stroke-width:4;stroke-linecap:round;stroke-linejoin:round;stroke-miterlimit:10;}
</style>
<g>
	<path class="st0" d="M43.1,195.1C61.3,208.9,84,217,108.5,217c59.9,0,108.5-48.6,108.5-108.5C217,48.6,168.4,0,108.5,0
		C48.6,0,0,48.6,0,108.5C0,143.9,17.2,175.9,43.1,195.1"/>
	<path class="st1" d="M108.6,213.6c24.2,0,44.6-4.7,63.8-19.8c-0.2-4.3-0.5-7-1-9c-5.1-19.9-19.6-23.4-45.4-29.6
		c-27.7-6.7-6.9-7.3-33.4,0c-21.4,5.9-42.4,8.7-47.2,28.2c-0.5,2.2-0.8,5.2-1.1,10C56.3,203.3,84.2,213.6,108.6,213.6"/>
	<path class="st2" d="M108.5,217c21.6,0,44.9-5.1,61.8-19.1c0.3-0.2,0.4-0.5,0.4-0.9c-0.1-5.6-0.5-6.1-0.8-8
		c-3.1-17.9-19.2-23.1-44.3-29.5c-27.8-7.1-6.7-7.4-32.5,0c-20.8,5.9-38.6,7-46.1,28.3c-0.7,2-0.8,5.3-0.8,9c0,0.3,0.1,0.7,0.4,0.9
		C64,211.4,91.9,217.5,108.5,217"/>
	<path id="cuello_4_" class="st3" d="M95.2,147.9v10c0,0,1.7,11.4,13.5,11.4c10.5,0,13.1-10.7,13.1-10.7v-10.7"/>
	<path class="st4" d="M96.7,148.7h23.1c0,0-2,7.5-10.4,7.5C97.8,156.3,96.7,148.7,96.7,148.7z"/>
	<path id="cara_4_" class="st5" d="M66.4,61.4v56.8c0,0,5.3,29.7,42.4,29.7c38,0,42.4-29.7,42.4-29.7V55.3H66.4V61.4z"/>
	<path class="st4" d="M70.2,64.4c0,0-1.6,0.3,1.3,0.3c3.8,0,2.4-2,2.4-2s5,1,4.5-1.5c-0.3-1.7,0.7-1.5,1.8-0.7
		c3.9,2.7,23.8,3.8,26.5,4.2c3.7,0.5,18.8-2.5,18.8-2.5s12.2,3.9,15.3,4.3c3.8,0.5,8.3,0.2,8.3,0.2s4.4,3.7,4.5,5.9
		c0.3,3.9,1.1,8.7,1.1,8.7l4.7,10.8l0.1-11.6c0,0,2.4-23-0.3-28.6c-5.5-11.3-13.1-12.8-13.1-12.8s4.5-2.3-16.2-7.4
		c-10.6-2.6-18-7.1-18-7.1s-4.9-7.5-17.7-5.8c-13,1.7-15.7,10.8-15.7,10.8s-5.5-2.7-9.8,2.8c-1.3,1.7-4.3,7.8-4.3,7.8
		s-1.7,1.9-4,8.3c-2.5,6.8-1.6,16.1-1.6,16.1s-1.9,9.5-2.2,13.3c-0.2,2.7,4.8,7.9,4.8,7.9l1.9,0.9"/>
	<path class="st6" d="M140,17.2c11.3,3.8,11.2,14.2,11.2,14.2s9.9-0.6,13,10.1c2.3,7.9-2.3,16.9-2.3,16.9s1.7,14.2,0.9,20.1
		c-0.6,4.2-3.3,17.1-3.3,17.1l-6.3-8c0,0-0.2-0.7-0.6-1.9c-1.1-3.6-3.5-11.5-3.8-14.7c-0.2-2.4,0-9.4,0-9.4s-3.5,0.3-7.3-0.2
		c-3.1-0.4-15.3-4.7-15.3-4.7s-15.1,3.3-18.8,2.7c-2.7-0.4-22.6-1.6-26.5-4.5c-1.1-0.8-2.1-1-1.8,0.8c0.4,2.7-4.5,1.6-4.5,1.6
		s1.4,2.2-2.4,2.2c-2.9,0-5.1,0.1-5.1,0.1s0.2,8.2,0,10.7C66.6,74.8,63.2,86,63.2,86l-8.1,3.3c0,0-0.9-5.4-1.2-7.2
		c-0.3-1.8-0.5-5.5-0.4-7.5c0.1-4.1,2.5-15.7,2.5-15.7s-3.9-9.5-1.4-16.9c2.3-6.9,10.5-9.3,10.5-9.3s0.3-6,4.3-8.5
		c7.7-4.9,12.1-1.7,12.1-1.7s4.1-8.6,14.5-8.6c14.9,0,19.6,7.9,19.6,7.9s7.7-6.3,18.9-5.5C138.4,16.5,140,17.2,140,17.2z"/>
	<g>
		<path class="st7" d="M152.2,88.1c0,0,14.2-0.5,14.2,12.4c0,12.1-14.2,14.7-14.2,14.7V88.1z"/>
		<path class="st8" d="M151.8,116.9l0.4-30.2l0.3-1.1c1.1,0,5,0.1,8.7,1.9c3.5,1.7,7.8,5.3,7.8,12.8c0,11.1-10.6,16-16.2,17
			L151.8,116.9z M154.7,90.5v21.4c3.6-1.3,9.5-4.5,9.5-11.6C164.2,92.9,158.2,91,154.7,90.5z"/>
	</g>
	<path class="st5" d="M64.8,87.7c0,0-14.6-1.9-14.6,12.7c0,12,14.6,15.1,14.6,15.1V87.7z"/>
	<path class="st4" d="M62.3,111.9V91.2c0,0-5,2.1-4.8,8.3C57.8,108.5,62.3,111.9,62.3,111.9z"/>
	<path class="st4" d="M154.7,111.9V91.2c0,0,5,2.1,4.8,8.3C159.3,108.5,154.7,111.9,154.7,111.9z"/>
	<circle class="st9" cx="88.6" cy="90.1" r="3.4"/>
	<path class="st9" d="M132.4,90.1c0,1.9-1.5,3.4-3.4,3.4c-1.9,0-3.4-1.5-3.4-3.4c0-1.9,1.5-3.4,3.4-3.4
		C130.8,86.7,132.4,88.2,132.4,90.1z"/>
	<path class="st10" d="M123.2,120.8c0,4.7-6.7,8.9-17.3,7.5"/>
	<line class="st11" x1="97.8" y1="139.6" x2="97.8" y2="144.4"/>
	<line class="st11" x1="104.6" y1="139" x2="104.6" y2="145"/>
	<polyline class="st12" points="149.8,71 153.9,98.4 156.5,85.2 	"/>
	<line class="st11" x1="109.4" y1="139.2" x2="109.4" y2="145.2"/>
	<line class="st11" x1="114.6" y1="139.6" x2="114.6" y2="145.6"/>
	<line class="st11" x1="117.8" y1="139.2" x2="117.8" y2="145.2"/>
	<line class="st11" x1="103" y1="116.9" x2="103" y2="122.8"/>
	<line class="st11" x1="105.9" y1="115.7" x2="105.9" y2="120.8"/>
	<line class="st11" x1="114.6" y1="113.9" x2="114.6" y2="119.8"/>
	<line class="st11" x1="121.9" y1="111.8" x2="121.9" y2="116.1"/>
	<line class="st11" x1="100.9" y1="139.6" x2="100.9" y2="145.6"/>
	<line class="st11" x1="117.8" y1="112.4" x2="117.8" y2="119"/>
	<line class="st11" x1="99.8" y1="119.8" x2="99.8" y2="124.3"/>
	<line class="st11" x1="121.4" y1="140.4" x2="121.4" y2="144"/>
	
		<ellipse transform="matrix(-0.1043 -0.9945 0.9945 -0.1043 53.1792 248.039)" class="st13" cx="138.3" cy="100.1" rx="3" ry="1.9"/>
	<path class="st13" d="M135.3,94.3c1.1-0.7,2.9,0.2,4,2c1.1,1.8,1,3.8-0.1,4.4c-1.1,0.7-2.9-0.2-4-2
		C134.1,96.9,134.1,94.9,135.3,94.3z"/>
	<path class="st14" d="M99.6,57.4c0,0-3.6-13.1-2.8-15.2"/>
	<path class="st14" d="M122.2,42.2c0,0-0.2,15.9-3.3,15.2"/>
	<line class="st14" x1="109.5" y1="46.2" x2="109.5" y2="58.4"/>
	<path class="st15" d="M91.9,157c0,0,0,19,16.4,19c16.8,0,16.8-19,16.8-19"/>
	<line class="st11" x1="125.9" y1="111.7" x2="125.9" y2="116.1"/>
	<line class="st11" x1="96" y1="122.5" x2="96" y2="124.7"/>
	<g>
		<path class="st16" d="M153.5,98.9c0,0,2.8-5,4.3-5.2c0.7-0.1,1.6,1.9,1.6,1.9"/>
		<path class="st16" d="M153.7,101.6c0,0,1.3-5.9,2.7-6.6"/>
		<path class="st16" d="M154,99.8c0,0,2.4-5.6,3.9-6"/>
	</g>
	<path class="st16" d="M63.4,99.6c0.3-0.3-2.1-5.8-4.3-5.2"/>
	<g>
		<path class="st16" d="M64.2,98.9c0,0-2.8-5.1-4.3-5.2c-1.1,0-1.6,1.9-1.6,1.9"/>
		<path class="st16" d="M64.2,101.5c0,0-1.3-5.9-2.7-6.6"/>
	</g>
	<polyline class="st12" points="66.4,64.8 65,98.8 61.2,83.5 	"/>
	<g>
		<g>
			<path class="st17" d="M104.6,107.9c0,0,1.5,2.4,3.9,2.4c2.8,0,4.3-2,4.3-2"/>
			<path class="st18" d="M116.5,103.4c0.8,3-1.9,4.5-1.9,4.5"/>
			<path class="st18" d="M101.1,103.4c-0.8,3,1.9,4.5,1.9,4.5"/>
		</g>
	</g>
	<line class="st19" x1="76.3" y1="81.7" x2="96" y2="76.8"/>
	<path class="st19" d="M122.5,75.8c4.6,0.7,4.2,0.5,10.4,1.6c4.9,0.9,10.2,3.8,10.2,3.8"/>
	<path class="st20" d="M113.3,13.9"/>
	<path class="st16" d="M153.9,99.6c-0.1-0.2,2.7-5.8,4.3-5.2"/>
</g>
</svg>
